HIERARCHY
ROOT Hips
{
    OFFSET   0.000000   0.000000   0.000000
    CHANNELS 6 Xposition Yposition Zposition Zrotation Xrotation Yrotation
    JOINT Chest
    {
        OFFSET   0.000000   8.007240   0.000000
        CHANNELS 3 Zrotation Xrotation Yrotation
        JOINT Chest2
        {
            OFFSET   0.000000  22.077100   0.000000
            CHANNELS 3 Zrotation Xrotation Yrotation
            JOINT Neck
            {
                OFFSET   0.000000  23.254800   0.000000
                CHANNELS 3 Zrotation Xrotation Yrotation
                JOINT Head
                {
                    OFFSET   0.000000  14.370000   1.956600
                    CHANNELS 3 Zrotation Xrotation Yrotation
                    End Site
                    {
                        OFFSET   0.000000  19.566000   0.000000
                    }
                }
            }
            JOINT LeftCollar
            {
                OFFSET   3.911900  19.017000  -0.467064
                CHANNELS 3 Zrotation Xrotation Yrotation
                JOINT LeftShoulder
                {
                    OFFSET  10.383700   0.000000   0.000000
                    CHANNELS 3 Zrotation Xrotation Yrotation
                    JOINT LeftElbow
                    {
                        OFFSET  26.662100   0.001476   0.000517
                        CHANNELS 3 Zrotation Xrotation Yrotation
                        JOINT LeftWrist
                        {
                            OFFSET  28.869000  -0.000025  -0.000106
                            CHANNELS 3 Zrotation Xrotation Yrotation
                            JOINT LeftFinger0
                            {
                                OFFSET   2.044660  -2.323460   3.252850
                                CHANNELS 3 Zrotation Xrotation Yrotation
                                JOINT LeftFinger01
                                {
                                    OFFSET   3.088130   0.000000   0.000000
                                    CHANNELS 3 Zrotation Xrotation Yrotation
                                    JOINT LeftFinger02
                                    {
                                        OFFSET   2.639460   0.000000   0.000000
                                        CHANNELS 3 Zrotation Xrotation Yrotation
                                        End Site
                                        {
                                            OFFSET   2.582190   0.000000   0.000000
                                        }
                                    }
                                }
                            }
                            JOINT LeftFinger1
                            {
                                OFFSET   8.364480   0.000000   3.252850
                                CHANNELS 3 Zrotation Xrotation Yrotation
                                JOINT LeftFinger11
                                {
                                    OFFSET   4.646930   0.000000   0.000000
                                    CHANNELS 3 Zrotation Xrotation Yrotation
                                    JOINT LeftFinger12
                                    {
                                        OFFSET   2.323460   0.000000   0.000000
                                        CHANNELS 3 Zrotation Xrotation Yrotation
                                        End Site
                                        {
                                            OFFSET   2.273050   0.000000   0.000000
                                        }
                                    }
                                }
                            }
                            JOINT LeftFinger2
                            {
                                OFFSET   8.364490   0.000015   1.078090
                                CHANNELS 3 Zrotation Xrotation Yrotation
                                JOINT LeftFinger21
                                {
                                    OFFSET   5.111620   0.000000   0.000000
                                    CHANNELS 3 Zrotation Xrotation Yrotation
                                    JOINT LeftFinger22
                                    {
                                        OFFSET   2.788160   0.000016   0.000000
                                        CHANNELS 3 Zrotation Xrotation Yrotation
                                        End Site
                                        {
                                            OFFSET   2.727660   0.000000   0.000000
                                        }
                                    }
                                }
                            }
                            JOINT LeftFinger3
                            {
                                OFFSET   7.899780   0.000017  -1.078090
                                CHANNELS 3 Zrotation Xrotation Yrotation
                                JOINT LeftFinger31
                                {
                                    OFFSET   4.646930   0.000000   0.000000
                                    CHANNELS 3 Zrotation Xrotation Yrotation
                                    JOINT LeftFinger32
                                    {
                                        OFFSET   2.323470   0.000000   0.000000
                                        CHANNELS 3 Zrotation Xrotation Yrotation
                                        End Site
                                        {
                                            OFFSET   2.273050   0.000000   0.000000
                                        }
                                    }
                                }
                            }
                            JOINT LeftFinger4
                            {
                                OFFSET   7.435090   0.000000  -3.252850
                                CHANNELS 3 Zrotation Xrotation Yrotation
                                JOINT LeftFinger41
                                {
                                    OFFSET   3.717550   0.000000   0.000000
                                    CHANNELS 3 Zrotation Xrotation Yrotation
                                    JOINT LeftFinger42
                                    {
                                        OFFSET   1.858770   0.000000   0.000000
                                        CHANNELS 3 Zrotation Xrotation Yrotation
                                        End Site
                                        {
                                            OFFSET   1.818440   0.000000   0.000000
                                        }
                                    }
                                }
                            }
                        }
                    }
                }
            }
            JOINT RightCollar
            {
                OFFSET  -3.911900  19.017000  -0.467063
                CHANNELS 3 Zrotation Xrotation Yrotation
                JOINT RightShoulder
                {
                    OFFSET -10.383700   0.000019   0.000000
                    CHANNELS 3 Zrotation Xrotation Yrotation
                    JOINT RightElbow
                    {
                        OFFSET -26.662100   0.001175   0.000102
                        CHANNELS 3 Zrotation Xrotation Yrotation
                        JOINT RightWrist
                        {
                            OFFSET -28.869000   0.000016  -0.000079
                            CHANNELS 3 Zrotation Xrotation Yrotation
                            JOINT RightFinger0
                            {
                                OFFSET  -2.044660  -2.323490   3.252850
                                CHANNELS 3 Zrotation Xrotation Yrotation
                                JOINT RightFinger01
                                {
                                    OFFSET  -3.088140   0.000000   0.000000
                                    CHANNELS 3 Zrotation Xrotation Yrotation
                                    JOINT RightFinger02
                                    {
                                        OFFSET  -2.639460   0.000000   0.000000
                                        CHANNELS 3 Zrotation Xrotation Yrotation
                                        End Site
                                        {
                                            OFFSET  -2.582190   0.000000   0.000000
                                        }
                                    }
                                }
                            }
                            JOINT RightFinger1
                            {
                                OFFSET  -8.364480   0.000000   3.252850
                                CHANNELS 3 Zrotation Xrotation Yrotation
                                JOINT RightFinger11
                                {
                                    OFFSET  -4.646930   0.000000   0.000000
                                    CHANNELS 3 Zrotation Xrotation Yrotation
                                    JOINT RightFinger12
                                    {
                                        OFFSET  -2.323470   0.000000   0.000000
                                        CHANNELS 3 Zrotation Xrotation Yrotation
                                        End Site
                                        {
                                            OFFSET  -2.273050   0.000000   0.000000
                                        }
                                    }
                                }
                            }
                            JOINT RightFinger2
                            {
                                OFFSET  -8.364480   0.000000   1.078090
                                CHANNELS 3 Zrotation Xrotation Yrotation
                                JOINT RightFinger21
                                {
                                    OFFSET  -5.111620   0.000000   0.000000
                                    CHANNELS 3 Zrotation Xrotation Yrotation
                                    JOINT RightFinger22
                                    {
                                        OFFSET  -2.788160   0.000000   0.000000
                                        CHANNELS 3 Zrotation Xrotation Yrotation
                                        End Site
                                        {
                                            OFFSET  -2.727660   0.000000   0.000000
                                        }
                                    }
                                }
                            }
                            JOINT RightFinger3
                            {
                                OFFSET  -7.899780   0.000000  -1.078090
                                CHANNELS 3 Zrotation Xrotation Yrotation
                                JOINT RightFinger31
                                {
                                    OFFSET  -4.646930   0.000000   0.000000
                                    CHANNELS 3 Zrotation Xrotation Yrotation
                                    JOINT RightFinger32
                                    {
                                        OFFSET  -2.323470   0.000000   0.000000
                                        CHANNELS 3 Zrotation Xrotation Yrotation
                                        End Site
                                        {
                                            OFFSET  -2.273050   0.000000   0.000000
                                        }
                                    }
                                }
                            }
                            JOINT RightFinger4
                            {
                                OFFSET  -7.435090   0.000000  -3.252850
                                CHANNELS 3 Zrotation Xrotation Yrotation
                                JOINT RightFinger41
                                {
                                    OFFSET  -3.717550   0.000000   0.000000
                                    CHANNELS 3 Zrotation Xrotation Yrotation
                                    JOINT RightFinger42
                                    {
                                        OFFSET  -1.858770   0.000000   0.000000
                                        CHANNELS 3 Zrotation Xrotation Yrotation
                                        End Site
                                        {
                                            OFFSET  -1.818440   0.000000   0.000000
                                        }
                                    }
                                }
                            }
                        }
                    }
                }
            }
        }
    }
    JOINT LeftHip
    {
        OFFSET   9.783040   0.000000   0.000000
        CHANNELS 3 Zrotation Xrotation Yrotation
        JOINT LeftKnee
        {
            OFFSET   0.000032 -41.789100  -0.002222
            CHANNELS 3 Zrotation Xrotation Yrotation
            JOINT LeftAnkle
            {
                OFFSET   0.000087 -41.133200  -0.000135
                CHANNELS 3 Zrotation Xrotation Yrotation
                JOINT LeftToe
                {
                    OFFSET   0.000000  -6.358960  14.674500
                    CHANNELS 3 Zrotation Xrotation Yrotation
                    End Site
                    {
                        OFFSET   0.000000   0.000000   3.913200
                    }
                }
            }
        }
    }
    JOINT RightHip
    {
        OFFSET  -9.783040   0.000000   0.000000
        CHANNELS 3 Zrotation Xrotation Yrotation
        JOINT RightKnee
        {
            OFFSET   0.000047 -41.789100  -0.000896
            CHANNELS 3 Zrotation Xrotation Yrotation
            JOINT RightAnkle
            {
                OFFSET  -0.000117 -41.133300  -0.000248
                CHANNELS 3 Zrotation Xrotation Yrotation
                JOINT RightToe
                {
                    OFFSET   0.000000  -6.358970  14.674500
                    CHANNELS 3 Zrotation Xrotation Yrotation
                    End Site
                    {
                        OFFSET   0.000000   0.000000   3.913200
                    }
                }
            }
        }
    }
}
MOTION
Frames: 4
Frame Time:   0.016667
 -1.576610  89.397600   3.291120   0.237721  -5.465270   7.125060  -0.090455   3.694430   0.634537  -0.222700   7.387630   1.278990   2.983980  -2.135540   0.115258   4.920880  -4.295080  -6.738060  -3.389420   2.436200  -5.740470 -67.268800  16.814900 -10.812000  -1.358180  -4.280050  -6.585000   2.594560  -8.126530   1.217800  40.854100  29.128300 -65.470300 -23.392700  -0.000263  -0.000058  -6.696320  -0.001402  -0.003727 -29.289000   3.096110  -5.499950 -24.085400   0.000000  -0.000537 -16.859800   0.000234   0.005262 -27.231600  -0.159788   0.310525 -27.968100   0.000164  -0.000899 -18.626800   0.000554   0.007460 -27.020300  -1.970720   3.857790 -27.352200   0.001469  -0.001358 -18.216600   0.001330   0.000720 -28.643800  -3.196900   5.829600 -43.210000  -0.003735   0.000305 -28.777800  -0.001542  -0.003004  -2.805050 -15.348400   2.104110   0.894083 -38.596700  77.878600 -28.629900  11.160700  34.526300  -8.831320  25.792200  11.038800 -49.862800  33.466500  67.307500   3.471970   0.004037  -0.010940  -3.264010   0.002191  -0.004011  10.451700   4.477540  22.892000   9.293880   0.018677  -0.007222   6.505710   0.012396  -0.006002  12.562400   2.425670  10.762400  12.787000   0.016101  -0.005597   8.516130   0.009931  -0.004215  11.768600   0.857774   4.121640  11.795100   0.002536  -0.001048   7.855560   0.002126  -0.008200  13.008900  -0.567709  -2.450520  19.524200   0.005106  -0.001350  13.003100  -0.003724  -0.004752   1.939220   8.145350   2.094860   1.760260   1.264450   3.705500  -4.889380  -3.975550   0.465978  -0.000000   0.000000   0.000000   1.679380   5.575670  -5.030990   1.807200   4.550720 -10.803900  -4.613400  -5.254190  -6.862040  -0.000000   0.000000   0.000000
 -1.552200  89.407500   3.273690   0.211422  -5.433700   6.952410  -0.112316   3.637760   0.650480  -0.266718   7.273970   1.312120   3.043290  -2.099200   0.117048   5.025940  -4.219930  -6.575280  -3.301220   2.532100  -5.670180 -67.290800  16.919300 -10.860900  -1.323910  -4.330960  -6.493850   2.592510  -8.137840   1.207070  40.785800  28.978100 -65.419100 -23.347600  -0.000229  -0.000044  -6.673760  -0.001385  -0.003670 -29.314700   3.142130  -5.575490 -24.110000  -0.000042  -0.000546 -16.876900   0.000241   0.005247 -27.241500  -0.120649   0.234411 -28.010200   0.000132  -0.000851 -18.654800   0.000551   0.007447 -27.035000  -1.933000   3.782520 -27.401500   0.001466  -0.001373 -18.249400   0.001354   0.001484 -28.686000  -3.162260   5.755900 -43.266600  -0.003656   0.000271 -28.815500  -0.001476  -0.003005  -2.871970 -15.087300   2.172060   0.804103 -38.695100  78.164200 -28.360500  11.093000  33.879200  -8.299010  26.464400  10.152100 -49.397800  33.105900  66.906700   4.563020   0.003560  -0.007605  -2.718480   0.002162  -0.004563  10.629600   4.389210  22.244500   9.407310   0.018811  -0.007136   6.585110   0.012539  -0.004008  12.629400   2.297780  10.088400  12.831600   0.016422  -0.003718   8.545870   0.010214  -0.002866  11.996300   0.722194   3.383070  12.014600   0.003005  -0.001095   8.001740   0.002296  -0.007531  13.252600  -0.743639  -3.166680  19.904600   0.005401  -0.000821  13.256500  -0.003951  -0.005800   1.946660   8.159790   2.087390   1.734110   1.208140   3.786740  -4.868580  -3.973640   0.564998   0.000000   0.000000   0.000000   1.666460   5.555990  -5.052230   1.803000   4.512090 -10.696300  -4.598380  -5.223520  -6.770720  -0.000000   0.000000   0.000000
 -1.527670  89.418100   3.248380   0.172316  -5.401230   6.773380  -0.148501   3.596850   0.697830  -0.341999   7.191610   1.409200   3.141910  -2.090660   0.119879   5.180380  -4.201250  -6.545410  -3.240800   2.594380  -5.660350 -67.290400  16.946500 -10.898100  -1.301540  -4.353190  -6.445420   2.589180  -8.167370   1.180100  40.740700  28.862700 -65.366600 -23.293000  -0.000128   0.000000  -6.646480  -0.001328  -0.003608 -29.334600   3.187700  -5.651090 -24.129800  -0.000083  -0.000573 -16.890800   0.000291   0.005231 -27.251200  -0.080609   0.156532 -28.052200   0.000113  -0.000822 -18.682800   0.000549   0.007431 -27.049900  -1.904830   3.724490 -27.456200   0.001465  -0.001419 -18.285800   0.001425   0.002526 -28.748200  -3.127420   5.679490 -43.355000  -0.003578   0.000234 -28.874400  -0.001411  -0.003006  -2.900100 -14.985400   2.181100   0.797412 -38.777300  78.282000 -27.863000  10.939400  32.690500  -7.672160  27.533800   8.981090 -49.261700  32.816400  66.493100   5.423790   0.003380  -0.004270  -2.288100   0.002100  -0.005029  10.918200   4.177290  20.823700   9.547000   0.018830  -0.006534   6.682920   0.012560  -0.001909  12.755700   1.948030   8.675660  12.876300   0.016467  -0.001882   8.575620   0.010255  -0.001441  12.144900   0.605148   2.796120  12.158500   0.004604  -0.001206   8.097540   0.002878  -0.006871  13.409800  -0.886723  -3.727880  20.156300   0.006381  -0.000311  13.424100  -0.004120  -0.006886   1.952230   8.166620   2.062760   1.725840   1.182640   3.884120  -4.848980  -3.973290   0.673045   0.000000   0.000000  -0.000000   1.658010   5.531770  -5.086370   1.799030   4.477170 -10.587900  -4.577770  -5.185030  -6.650180   0.000000   0.000000   0.000000
 -1.496380  89.426800   3.210010   0.115304  -5.362260   6.597460  -0.181037   3.567910   0.787082  -0.411316   7.132990   1.589980   3.239620  -2.111210   0.122242   5.347120  -4.240800  -6.661810  -3.224320   2.632870  -5.754720 -67.274100  16.822900 -10.903400  -1.308020  -4.319500  -6.478590   2.611110  -8.216130   1.132810  40.761600  28.842800 -65.331800 -23.258600   0.006186   0.002703  -6.629300   0.006343  -0.003529 -29.336500   3.204770  -5.679870 -24.132800   0.006599  -0.005652 -16.892900   0.006408   0.005205 -27.256000  -0.061909   0.120063 -28.073500   0.008207  -0.008321 -18.697000   0.008627   0.007422 -27.058500  -1.902150   3.716720 -27.494100   0.006465  -0.006174 -18.311000   0.006420   0.003746 -28.789900  -3.112780   5.641620 -43.415800  -0.003499   0.000197 -28.914900  -0.001378  -0.003007  -2.898170 -15.037600   2.058770   0.846620 -38.842400  78.244300 -27.274000  10.719700  31.532500  -7.264130  28.415300   7.290630 -49.495000  32.781000  66.195500   5.981950   0.003426  -0.010312  -2.009030   0.002025  -0.005430  12.364900   3.797250  16.897400  10.629400   0.006044  -0.001521   7.440570   0.004090   0.000962  13.832200   1.189100   4.966740  13.872200   0.004381   0.000117   9.238920   0.002659   0.000510  12.350600   0.568965   2.577440  12.364400   0.013410  -0.001366   8.234650   0.008145  -0.006221  13.629400  -0.926843  -3.860200  20.495000   0.010963   0.000164  13.649600  -0.004240  -0.007984   1.965210   8.137530   2.011570   1.735950   1.200700   4.010900  -4.827130  -3.992810   0.774895   0.000000   0.000000   0.000000   1.653560   5.479090  -5.109520   1.803660   4.469160 -10.473400  -4.545240  -5.143520  -6.544510   0.000000   0.000000   0.000000
